<?xml version="1.0" encoding="UTF-8" standalone="no"?>
<!DOCTYPE svg PUBLIC "-//W3C//DTD SVG 1.1//EN" "http://www.w3.org/Graphics/SVG/1.1/DTD/svg11.dtd">
<svg xmlns="http://www.w3.org/2000/svg" version="1.1" viewBox="0.00 0.00 480.00 547.00" width="480.00" height="547.00">
<path fill="#97989a" d="
  M 252.88 0.00
  L 254.83 0.00
  L 300.41 31.15
  Q 301.20 31.70 301.01 32.63
  Q 300.01 37.48 295.18 35.78
  Q 275.46 28.79 252.50 25.62
  Q 249.21 25.17 249.04 21.37
  Q 248.86 17.01 249.10 5.75
  Q 249.21 1.18 252.88 0.00
  Z"
/>
<path fill="#97989a" d="
  M 229.60 6.22
  C 232.94 5.73 235.04 9.01 235.04 12.00
  Q 234.95 81.63 235.06 151.25
  C 235.07 157.11 232.49 157.69 227.24 157.90
  Q 182.62 159.62 138.00 160.86
  C 130.12 161.08 118.31 162.57 126.67 150.70
  Q 148.94 119.08 226.50 8.03
  Q 227.56 6.51 229.60 6.22
  Z"
/>
<path fill="#97989a" d="
  M 23.75 214.70
  Q 26.31 215.36 29.00 214.98
  Q 71.36 208.91 113.73 202.93
  Q 116.46 202.55 120.44 203.34
  Q 120.90 203.43 121.12 203.85
  Q 123.14 207.64 120.97 210.72
  Q 67.19 286.81 13.40 362.89
  C 12.11 364.71 10.41 366.40 8.01 366.19
  C 2.60 365.70 4.11 358.33 4.27 354.76
  Q 8.24 265.63 12.41 176.51
  C 12.71 170.13 12.84 159.12 13.74 150.40
  C 14.19 146.09 15.93 145.63 19.16 143.42
  Q 106.08 83.98 192.97 24.50
  C 195.80 22.56 199.33 26.45 199.67 29.23
  A 1.48 1.44 -32.3 0 1 199.43 30.23
  Q 197.65 32.85 194.50 35.99
  C 156.88 73.40 93.25 138.58 29.68 200.10
  C 27.90 201.83 26.14 204.09 24.23 205.98
  C 21.65 208.52 21.12 211.07 22.96 214.11
  Q 23.23 214.57 23.75 214.70
  Z"
/>
<path fill="#97989a" d="
  M 281.67 80.84
  Q 268.93 75.68 251.45 70.84
  Q 249.44 70.29 249.24 67.50
  Q 248.67 59.74 249.14 51.86
  A 2.70 2.69 79.6 0 1 250.71 49.57
  C 252.83 48.60 255.82 48.57 258.40 48.96
  C 307.90 56.48 350.13 82.54 377.52 124.17
  Q 388.67 141.12 396.39 159.97
  Q 400.31 169.54 404.19 179.12
  C 417.52 212.01 441.88 236.64 473.22 252.72
  A 2.92 2.92 0.0 0 1 474.80 254.99
  Q 476.36 268.21 475.98 281.50
  A 0.50 0.50 0.0 0 1 475.29 281.95
  Q 466.38 278.34 457.76 274.19
  Q 419.38 255.71 401.37 217.97
  C 397.96 210.83 394.58 200.77 390.85 191.82
  C 370.36 142.63 331.46 101.03 281.67 80.84
  Z"
/>
<path fill="#97989a" d="
  M 422.17 167.81
  Q 414.53 146.97 405.33 129.88
  Q 388.98 99.49 363.23 75.78
  A 0.56 0.56 0.0 0 1 363.46 74.83
  Q 364.48 74.56 365.61 75.33
  Q 413.73 108.54 462.09 141.39
  Q 465.83 143.93 468.82 146.32
  A 3.37 3.35 -72.6 0 1 470.08 148.75
  Q 472.15 183.85 473.32 219.42
  C 473.52 225.59 468.38 225.30 464.59 222.65
  Q 434.57 201.68 422.17 167.81
  Z"
/>
<path fill="#97989a" d="
  M 261.12 121.50
  Q 255.46 119.01 250.49 116.04
  A 2.94 2.93 -76.5 0 1 249.07 113.71
  Q 248.57 106.22 249.14 98.23
  C 249.60 91.76 260.72 96.12 264.22 97.29
  C 314.39 114.02 350.95 150.88 370.86 198.83
  Q 375.28 209.50 379.62 220.20
  C 396.95 262.99 432.03 290.51 475.21 304.94
  Q 477.83 305.81 477.99 308.98
  Q 478.45 317.65 477.87 326.26
  Q 477.84 326.78 477.32 326.69
  C 434.37 319.26 395.88 298.13 375.73 257.88
  Q 373.90 254.22 368.82 240.92
  C 348.67 188.13 313.70 144.62 261.12 121.50
  Z"
/>
<path fill="#97989a" d="
  M 267.07 147.92
  C 300.87 166.66 326.44 196.27 342.17 231.52
  C 347.23 242.86 351.06 254.83 356.03 265.09
  Q 360.62 274.56 363.46 278.79
  Q 366.51 283.35 361.76 286.16
  C 360.06 287.16 359.07 287.26 357.39 286.00
  Q 304.92 246.89 252.36 207.90
  C 249.87 206.05 248.86 204.30 248.88 201.01
  Q 249.03 173.74 248.92 146.49
  C 248.88 136.60 263.20 145.77 267.07 147.92
  Z"
/>
<path fill="#97989a" d="
  M 58.94 325.82
  Q 59.55 324.56 60.20 323.95
  Q 142.43 245.43 225.00 167.25
  Q 225.86 166.44 228.85 164.21
  A 1.33 1.31 28.0 0 1 229.76 163.94
  C 234.13 164.30 234.95 167.44 235.04 171.46
  Q 235.51 192.17 234.96 203.01
  Q 234.84 205.48 232.04 207.56
  Q 152.59 266.59 73.20 325.71
  Q 70.80 327.50 66.72 330.17
  C 63.29 332.42 60.02 329.67 58.90 326.64
  A 1.08 1.07 48.1 0 1 58.94 325.82
  Z"
/>
<path fill="#005f7f" d="
  M 232.25 259.03
  C 229.53 259.10 227.84 261.13 227.02 264.05
  Q 223.47 276.71 222.34 280.36
  Q 221.52 283.01 218.58 283.63
  Q 213.10 284.78 195.87 287.84
  C 192.65 288.41 190.67 288.51 187.87 286.47
  Q 177.15 278.69 173.89 274.83
  C 171.02 271.41 173.66 268.56 176.64 266.32
  Q 208.05 242.78 239.48 218.53
  A 2.87 2.87 0.0 0 1 242.52 218.24
  C 245.74 219.84 248.83 222.44 251.67 224.59
  Q 288.23 252.18 324.63 279.98
  Q 325.17 280.40 324.52 280.61
  C 322.52 281.28 320.79 281.98 319.03 283.10
  Q 310.53 288.52 302.26 294.26
  Q 300.25 295.65 297.59 294.90
  Q 284.06 291.12 271.46 286.68
  A 3.52 3.50 -86.8 0 1 269.20 284.14
  Q 266.97 274.30 265.04 264.73
  Q 264.19 260.48 259.26 260.01
  Q 245.79 258.70 232.25 259.03
  Z"
/>
<path fill="#005f7f" d="
  M 148.11 304.36
  C 150.59 308.52 148.45 310.86 145.22 313.81
  Q 137.93 320.48 133.65 324.88
  C 131.62 326.96 130.34 327.89 127.23 327.45
  Q 119.96 326.43 112.74 325.30
  Q 111.95 325.18 110.81 323.95
  Q 106.92 319.75 111.45 316.24
  Q 124.02 306.52 136.57 296.82
  Q 138.28 295.49 140.73 295.77
  C 144.32 296.19 146.47 301.59 148.11 304.36
  Z"
/>
<path fill="#005f7f" d="
  M 341.95 315.12
  C 346.24 308.96 349.28 303.87 350.51 300.17
  Q 350.69 299.61 351.16 299.97
  Q 408.28 343.55 465.49 387.00
  C 469.18 389.80 466.04 393.80 463.35 395.60
  Q 409.33 431.79 355.33 468.02
  Q 348.67 472.49 342.04 477.01
  Q 341.51 477.37 341.37 476.75
  C 340.91 474.61 340.87 472.83 339.73 470.91
  Q 337.57 467.26 335.73 463.48
  C 333.72 459.38 335.46 456.95 338.70 454.05
  Q 345.39 448.06 351.63 441.63
  C 352.68 440.54 354.55 440.24 356.18 440.51
  Q 368.06 442.47 379.96 444.20
  C 383.88 444.76 385.97 443.56 387.79 440.30
  Q 392.80 431.34 395.76 422.81
  C 396.41 420.94 395.83 417.91 394.15 417.07
  Q 383.31 411.66 372.47 406.32
  C 370.95 405.57 370.16 404.08 370.04 402.30
  Q 369.53 394.34 370.03 384.50
  C 370.27 379.85 372.47 378.45 376.81 376.91
  Q 382.03 375.05 393.99 370.57
  C 398.70 368.81 398.54 365.95 397.12 361.60
  Q 394.61 353.93 391.35 346.61
  C 390.21 344.04 388.67 340.63 385.25 340.84
  Q 374.00 341.50 362.75 342.13
  C 359.31 342.32 356.59 342.18 354.21 339.30
  Q 347.91 331.69 341.38 324.34
  C 338.73 321.36 339.76 318.26 341.95 315.12
  Z"
/>
<ellipse fill="#005f7f" cx="0.00" cy="0.00" transform="translate(241.73,384.19) rotate(5.8)" rx="105.32" ry="82.46"/>
<path fill="#005f7f" d="
  M 87.74 398.34
  C 86.23 399.01 84.86 400.80 85.19 402.29
  Q 87.34 412.13 94.04 425.48
  A 1.32 1.29 -2.7 0 0 94.76 426.12
  Q 98.13 427.32 103.01 426.94
  Q 116.04 425.95 123.49 425.69
  C 125.92 425.60 127.34 426.62 128.91 428.56
  Q 134.94 436.01 141.26 443.20
  Q 142.90 445.06 143.29 447.28
  Q 143.62 449.11 142.22 451.37
  C 139.17 456.28 135.73 462.90 131.45 466.72
  C 129.49 468.48 127.96 467.60 126.01 466.50
  Q 121.49 463.96 117.20 461.05
  Q 69.61 428.72 21.75 396.79
  C 17.72 394.11 14.07 390.19 19.50 385.98
  Q 49.31 362.88 79.37 340.10
  C 82.17 337.98 87.61 338.29 88.02 342.75
  Q 88.13 344.01 87.50 347.33
  Q 87.41 347.82 87.60 348.28
  Q 88.47 350.32 89.96 351.02
  Q 105.35 358.33 112.84 363.11
  Q 114.15 363.95 114.05 366.50
  Q 113.69 375.84 112.86 385.15
  C 112.62 387.87 111.51 389.27 109.03 390.09
  Q 98.17 393.69 87.74 398.34
  Z"
/>
<path fill="#97989a" d="
  M 480.00 350.38
  L 480.00 370.00
  Q 477.34 374.64 473.05 371.61
  Q 455.03 358.88 445.26 351.02
  Q 443.72 349.79 442.85 347.32
  Q 442.69 346.87 442.86 346.43
  Q 444.63 341.81 449.40 343.02
  Q 470.10 348.29 480.00 350.38
  Z"
/>
<path fill="#005f7f" d="
  M 312.60 494.59
  C 313.16 494.99 313.54 495.06 314.20 495.28
  Q 314.77 495.45 314.28 495.79
  Q 282.25 517.54 250.05 539.03
  C 246.39 541.47 242.75 545.35 238.77 542.69
  Q 199.20 516.19 159.36 489.19
  A 0.72 0.72 0.0 0 1 159.37 487.99
  Q 170.44 480.79 181.79 473.57
  Q 183.55 472.45 186.23 473.30
  Q 196.64 476.62 206.99 480.13
  C 211.38 481.62 213.98 481.81 214.62 486.16
  C 215.49 492.02 216.89 497.93 218.04 503.73
  Q 218.69 507.06 223.02 507.65
  Q 236.70 509.51 250.50 509.94
  C 254.33 510.06 255.83 508.25 256.82 504.61
  Q 259.12 496.15 262.00 487.22
  Q 262.68 485.12 264.85 484.71
  Q 277.23 482.41 290.23 479.85
  C 292.62 479.38 295.56 481.15 297.65 482.92
  Q 304.90 489.05 312.60 494.59
  Z"
/>
</svg>
